{"id":"169808","urlID":"3b35g","name":"test","description":"","content":"data = \"ffmpeg version N-72360-g4fe3844 Copyright (c) 2000-2015 the FFmpeg developers built with gcc 4.9.1 (Debian 4.9.1-19) configuration: --prefix=\/usr libavutil 54. 25.100 \/ 54. 25.100 libavcodec 56. 41.100 \/ 56. 41.100 libavformat 56. 33.101 \/ 56. 33.101 libavdevice 56. 4.100 \/ 56. 4.100 libavfilter 5. 16.101 \/ 5. 16.101 libswscale 3. 1.101 \/ 3. 1.101 libswresample 1. 1.100 \/ 1. 1.100 Input #0, mov,mp4,m4a,3gp,3g2,mj2, from 'http:\/\/clips.vorwaerts-gmbh.de\/VfE_html5.mp4': Metadata: major_brand : mp42 minor_version : 1 compatible_brands: mp42avc1 creation_time : 2011-03-16 10:41:51 Duration: 00:01:00.08, start: 0.000000, bitrate: 699 kb\/s Stream #0:0(eng): Video: h264 (Constrained Baseline) (avc1 \/ 0x31637661), yuv420p(tv, smpte170m\/smpte170m\/bt709), 640x360, 633 kb\/s, 24.04 fps, 24.04 tbr, 2500 tbn, 5k tbc (default) Metadata: creation_time : 2011-03-16 10:41:52 handler_name : Apple Video Media Handler Stream #0:1(eng): Audio: aac (LC) (mp4a \/ 0x6134706D), 44100 Hz, mono, fltp, 62 kb\/s (default) Metadata: creation_time : 2011-03-16 10:41:53 handler_name : Apple Sound Media Handler At least one output file must be specified\"","weightedVote":"2.5","numVotes":"0","author":"","community":"1","dateAdded":"2015-05-27","pattern":"\/([A-Z])\\w+\/g","replace":"","state":"{\"substEnabled\":false}"}